/* XPM */
static char * C:\Users\Ryan\Desktop\gnu_guix_xpm[] = {
"32 32 2 1",
" 	c None",
".	c #EAEB06",
"                                ",
"                                ",
"                                ",
"                                ",
"                                ",
"                                ",
"                                ",
" .                            . ",
" ..                          .. ",
"  ...   ..            ..   ...  ",
"   .........        .........   ",
"    ........        ........    ",
"         ....      ....         ",
"          ...      ...          ",
"          ...      ...          ",
"           ...    ...           ",
"           ...    ...           ",
"           ...    ...           ",
"            ...  ...            ",
"            ...  ...            ",
"            ...  ...            ",
"             .......            ",
"             ......             ",
"             ......             ",
"              ....              ",
"                                ",
"                                ",
"                                ",
"                                ",
"                                ",
"                                ",
"                                "};
