/* XPM */
static char * C:\Users\Ryan\Desktop\haskell_svg_xpm[] = {
"30 21 3 1",
" 	c None",
".	c #666666",
"+	c #999999",
" ....   ++++                  ",
"  ....   ++++                 ",
"  ....    +++                 ",
"   ....   ++++                ",
"    ....   ++++               ",
"    ....    +++               ",
"     ....   ++++              ",
"      ....   ++++   ..........",
"       ...    +++    .........",
"       ....   ++++            ",
"        ....   ++++           ",
"       ....   +++++           ",
"       ...    ++++++   .......",
"      ....   ++++++++   ......",
"     ....   ++++  +++         ",
"    ....    +++   ++++        ",
"    ....   ++++    ++++       ",
"   ....   ++++      +++       ",
"  ....    +++       ++++      ",
"  ....   ++++        ++++     ",
" ....   ++++          +++     "};
