/* XPM */
static char * C:\Users\Ryan\Desktop\haskell2_xpm[] = {
"30 30 3 1",
" 	c None",
".	c #999999",
"+	c #666666",
"                              ",
"                              ",
"                              ",
"                              ",
"                              ",
"  ...    +++                  ",
"  ....    +++                 ",
"   ....   ++++                ",
"    ...    +++                ",
"    ....    +++               ",
"     ....   ++++              ",
"      ...    +++    ..........",
"      ....    +++    .........",
"       ....   ++++            ",
"        ...    +++            ",
"        ...    ++++           ",
"       ...    ++++++   .......",
"      ....   +++++++    ......",
"      ...    +++  +++    .....",
"     ...    +++   ++++        ",
"    ....   ++++    +++        ",
"    ...    +++     ++++       ",
"   ...    +++       ++++      ",
"  ....   ++++        +++      ",
" ....    +++          +++     ",
"                              ",
"                              ",
"                              ",
"                              ",
"                              "};
