/* XPM */
static char * C:\Users\Ryan\Desktop\HaskellLogoStyPreview_1_xpm[] = {
"128 128 3 1",
" 	c None",
".	c #999999",
"+	c #666666",
"                                                                                                                                ",
"                                                                                                                                ",
"                                                                                                                                ",
"                                                                                                                                ",
"                                                                                                                                ",
"                                                                                                                                ",
"                                                                                                                                ",
"                                                                                                                                ",
"                                                                                                                                ",
"                                                                                                                                ",
"                                                                                                                                ",
"                                                                                                                                ",
"                                                                                                                                ",
"                                                                                                                                ",
"                                                                                                                                ",
"                                                                                                                                ",
"                                                                                                                                ",
"                                                                                                                                ",
" .....................         ++++++++++++++++++++++                                                                           ",
"  .....................         +++++++++++++++++++++                                                                           ",
"  ......................         +++++++++++++++++++++                                                                          ",
"   .....................         ++++++++++++++++++++++                                                                         ",
"    .....................         +++++++++++++++++++++                                                                         ",
"    ......................         +++++++++++++++++++++                                                                        ",
"     .....................         ++++++++++++++++++++++                                                                       ",
"      .....................         +++++++++++++++++++++                                                                       ",
"      ......................         +++++++++++++++++++++                                                                      ",
"       .....................         ++++++++++++++++++++++                                                                     ",
"        .....................         +++++++++++++++++++++                                                                     ",
"        ......................         +++++++++++++++++++++                                                                    ",
"         .....................         ++++++++++++++++++++++                                                                   ",
"          .....................         +++++++++++++++++++++                                                                   ",
"          ......................         +++++++++++++++++++++                                                                  ",
"           .....................         ++++++++++++++++++++++                                                                 ",
"            .....................         +++++++++++++++++++++                                                                 ",
"             .....................         +++++++++++++++++++++                                                                ",
"             .....................         ++++++++++++++++++++++                                                               ",
"              .....................         +++++++++++++++++++++                                                               ",
"               .....................         +++++++++++++++++++++                                                              ",
"               .....................         ++++++++++++++++++++++                                                             ",
"                .....................         +++++++++++++++++++++                                                             ",
"                 .....................         +++++++++++++++++++++                                                            ",
"                 .....................         ++++++++++++++++++++++                                                           ",
"                  .....................         +++++++++++++++++++++                                                           ",
"                   .....................         +++++++++++++++++++++                                                          ",
"                   .....................         ++++++++++++++++++++++         ................................................",
"                    .....................         +++++++++++++++++++++         ................................................",
"                     .....................         +++++++++++++++++++++         ...............................................",
"                     .....................         ++++++++++++++++++++++         ..............................................",
"                      .....................         +++++++++++++++++++++         ..............................................",
"                       .....................         +++++++++++++++++++++         .............................................",
"                       .....................          +++++++++++++++++++++         ............................................",
"                        .....................         +++++++++++++++++++++         ............................................",
"                         .....................         +++++++++++++++++++++         ...........................................",
"                         .....................          +++++++++++++++++++++         ..........................................",
"                          .....................         +++++++++++++++++++++         ..........................................",
"                           .....................         +++++++++++++++++++++         .........................................",
"                           .....................          +++++++++++++++++++++         ........................................",
"                            .....................         +++++++++++++++++++++         ........................................",
"                             .....................         +++++++++++++++++++++                                                ",
"                             .....................          +++++++++++++++++++++                                               ",
"                              .....................         +++++++++++++++++++++                                               ",
"                               .....................         +++++++++++++++++++++                                              ",
"                               .....................         ++++++++++++++++++++++                                             ",
"                              .....................         +++++++++++++++++++++++                                             ",
"                              .....................         ++++++++++++++++++++++++                                            ",
"                             .....................         ++++++++++++++++++++++++++                                           ",
"                            .....................         +++++++++++++++++++++++++++          .................................",
"                            .....................         ++++++++++++++++++++++++++++         .................................",
"                           .....................         ++++++++++++++++++++++++++++++         ................................",
"                          .....................         +++++++++++++++++++++++++++++++          ...............................",
"                          .....................         ++++++++++++++++++++++++++++++++         ...............................",
"                         .....................         ++++++++++++++++++++++++++++++++++         ..............................",
"                        .....................         +++++++++++++++++++++++++++++++++++          .............................",
"                        .....................         ++++++++++++++++++++++++++++++++++++         .............................",
"                       .....................         ++++++++++++++++++++++++++++++++++++++         ............................",
"                      .....................         +++++++++++++++++++++++++++++++++++++++          ...........................",
"                     ......................         ++++++++++++++++++++++++++++++++++++++++         ...........................",
"                     .....................         ++++++++++++++++++++++++++++++++++++++++++         ..........................",
"                    .....................         +++++++++++++++++++++++++++++++++++++++++++          .........................",
"                   ......................         +++++++++++++++++++++  +++++++++++++++++++++         .........................",
"                   .....................         +++++++++++++++++++++    +++++++++++++++++++++         ........................",
"                  .....................         ++++++++++++++++++++++    +++++++++++++++++++++                                 ",
"                 ......................         +++++++++++++++++++++      +++++++++++++++++++++                                ",
"                 .....................         +++++++++++++++++++++        +++++++++++++++++++++                               ",
"                .....................         ++++++++++++++++++++++        +++++++++++++++++++++                               ",
"               ......................         +++++++++++++++++++++          +++++++++++++++++++++                              ",
"               .....................         +++++++++++++++++++++            +++++++++++++++++++++                             ",
"              .....................         ++++++++++++++++++++++            +++++++++++++++++++++                             ",
"             ......................         +++++++++++++++++++++              +++++++++++++++++++++                            ",
"             .....................         +++++++++++++++++++++                +++++++++++++++++++++                           ",
"            .....................         ++++++++++++++++++++++                +++++++++++++++++++++                           ",
"           ......................         +++++++++++++++++++++                  +++++++++++++++++++++                          ",
"           .....................         +++++++++++++++++++++                    +++++++++++++++++++++                         ",
"          .....................         ++++++++++++++++++++++                    +++++++++++++++++++++                         ",
"         ......................         +++++++++++++++++++++                      +++++++++++++++++++++                        ",
"         .....................         +++++++++++++++++++++                        +++++++++++++++++++++                       ",
"        .....................         ++++++++++++++++++++++                        +++++++++++++++++++++                       ",
"       ......................         +++++++++++++++++++++                          +++++++++++++++++++++                      ",
"       .....................         +++++++++++++++++++++                            +++++++++++++++++++++                     ",
"      .....................         ++++++++++++++++++++++                            +++++++++++++++++++++                     ",
"     ......................         +++++++++++++++++++++                              +++++++++++++++++++++                    ",
"     .....................         +++++++++++++++++++++                                +++++++++++++++++++++                   ",
"    .....................         ++++++++++++++++++++++                                +++++++++++++++++++++                   ",
"   ......................         +++++++++++++++++++++                                  +++++++++++++++++++++                  ",
"   .....................         +++++++++++++++++++++                                    +++++++++++++++++++++                 ",
"  .....................         +++++++++++++++++++++                                     +++++++++++++++++++++                 ",
" ......................         +++++++++++++++++++++                                      +++++++++++++++++++++                ",
"                                                                                                                                ",
"                                                                                                                                ",
"                                                                                                                                ",
"                                                                                                                                ",
"                                                                                                                                ",
"                                                                                                                                ",
"                                                                                                                                ",
"                                                                                                                                ",
"                                                                                                                                ",
"                                                                                                                                ",
"                                                                                                                                ",
"                                                                                                                                ",
"                                                                                                                                ",
"                                                                                                                                ",
"                                                                                                                                ",
"                                                                                                                                ",
"                                                                                                                                ",
"                                                                                                                                ",
"                                                                                                                                ",
"                                                                                                                                "};
