/* XPM */
static char * C:\Users\Ryan\Desktop\haskell_svg_xpm[] = {
"28 20 3 1",
" 	c None",
".	c #666666",
"+	c #999999",
" ....   +++                 ",
"  ...   ++++                ",
"  ....   +++                ",
"   ...    +++               ",
"    ...   ++++              ",
"    ....   +++              ",
"     ...    +++   ..........",
"      ...   ++++   .........",
"      ....   +++    ........",
"       ...    +++           ",
"       ...    ++++          ",
"      ....   +++++    ......",
"      ...   +++++++   ......",
"     ...    +++ ++++   .....",
"    ....   +++   +++        ",
"    ...   ++++    +++       ",
"   ...    +++     ++++      ",
"  ....   +++       +++      ",
"  ...   ++++        +++     ",
" ....   +++         ++++    "};
