/* XPM */
static char * C:\Users\Ryan\Desktop\haskell_svg_xpm[] = {
"30 21 7 1",
" 	c None",
".	c #676767",
"+	c #666666",
"@	c #656565",
"#	c #999999",
"$	c #989898",
"%	c #9A9A9A",
".++++@ #####$                 ",
" +++++  #####                 ",
"  +++++  #####                ",
"  +++++@ $####%               ",
"   +++++  #####               ",
"    +++++  #####              ",
"    +++++@ $#####  +++++++++++",
"     +++++  #####  .++++++++++",
"      +++++  #####  ++++++++++",
"      @+++++ ######  +++++++++",
"       +++++  #####           ",
"      @+++++ #######  @+++++++",
"      +++++  ########  +++++++",
"     +++++  #########  +++++++",
"    +++++@ ###########  ++++++",
"    +++++  ##### %####$       ",
"   +++++  #####   #####       ",
"  .++++@ #####%    #####      ",
"  +++++  #####     ######     ",
" +++++  #####       #####     ",
".++++@ #####$        #####    "};
